# xmcd
#
# Track frame offsets: 
#        183
#        14858
#        32280
#        50733
#        68210
#        87093
#        103530
#        118228
#        133280
#        154665
#        173400
#        188573
#
# Disc length: 2745 seconds
#
# Revision: 9
# Processed by: cddbd v1.5.2PL0 Copyright (c) Steve Scherf et al.
# Submitted via: ExactAudioCopy v1.0b3
#
DISCID=9c0ab70c
DTITLE=Wolfgang Petry - Ganz oder gar nicht
DYEAR=1993
DGENRE=Pop
TTITLE0=Der Himmel brennt
TTITLE1=Tu's doch
TTITLE2=Ein ganz normaler Tag
TTITLE3=Meine wilden Jahre
TTITLE4=Ruby
TTITLE5=Ganz oder gar nicht
TTITLE6=Ein paar Stunden Zärtlichkeit
TTITLE7=Jessica
TTITLE8=Jeder Freund ist auch ein Mann
TTITLE9=Wenn ich geh'
TTITLE10=Wahnsinn
TTITLE11=Was macht der Teufel
EXTD=YEAR: 1993
EXTT0=
EXTT1=
EXTT2=
EXTT3=
EXTT4=
EXTT5=
EXTT6=
EXTT7=
EXTT8=
EXTT9=
EXTT10=
EXTT11=
PLAYORDER=
